<svg xmlns="http://www.w3.org/2000/svg" viewBox="0 0 40 40" width="40" height="40">
  <!-- dark background circle with cyan border -->
  <circle cx="20" cy="20" r="19" fill="#1a1a2e" stroke="#00b4ff" stroke-width="1.5"/>
  <!-- phone handset -->
  <path d="M 14 13
           C 14 11.9 14.9 11 16 11
           L 18.5 11
           C 19.3 11 20 11.6 20 12.4
           L 20 14.6
           C 20 15.4 19.3 16 18.5 16
           L 17.5 16
           C 17.5 16 17.2 18.5 19 20.5
           C 20.8 22.5 23 22.5 23 22.5
           L 23 21.5
           C 23 20.7 23.6 20 24.4 20
           L 26.6 20
           C 27.4 20 28 20.7 28 21.5
           L 28 24
           C 28 25.1 27.1 26 26 26
           C 19 26 14 21 14 14 Z"
        fill="#00b4ff"/>
</svg>
